#!OML:ASF F:\VICON\USERDATA\INSTALL\rory3\rory3.ASF
:FULLY-SPECIFIED
:DEGREES
1
root -10.793 17.3174 -33.0451 0.528237 0.62061 -0.123195
lowerback 4.61189 -3.48555 -2.0787
upperback 0.55188 -4.67206 4.37363
thorax -1.47746 -2.32576 5.9535
lowerneck -7.12922 0.192904 -12.1461
upperneck 16.025 1.13497 4.58899
head 5.9401 0.168576 3.54246
rclavicle 2.40529e-014 3.18055e-015
rhumerus 0 0 0
rradius 0
rwrist 0
rhand 0 0
rfingers 0
rthumb 0 0
lclavicle 2.40529e-014 3.18055e-015
lhumerus -29.9519 18.5226 81.9831
lradius 38.9137
lwrist 1.17354
lhand -16.3768 28.2983
lfingers 7.12502
lthumb 9.83663 58.0486
rfemur -23.1991 6.81074 24.3839
rtibia 33.0278
rfoot -6.43152 -8.20003
rtoes 6.80994
lfemur -7.18591 -2.61495 -20.4406
ltibia 60.1997
lfoot 10.9126 -20.4203
ltoes -6.89624
2
root -10.8074 17.3791 -32.7866 0.469984 1.12457 -0.0904139
lowerback 4.5384 -3.42771 -2.0536
upperback 0.664281 -4.59798 4.21774
thorax -1.344 -2.29325 5.76178
lowerneck -7.53437 -0.087762 -11.9318
upperneck 16.4444 0.770782 4.62822
head 6.17415 -0.00173252 3.50633
rclavicle -2.72335e-014 4.85035e-014
rhumerus 0 0 0
rradius 0
rwrist 0
rhand 0 0
rfingers 0
rthumb 0 0
lclavicle -2.72335e-014 4.85035e-014
lhumerus -29.8798 18.0037 82.112
lradius 38.6051
lwrist -0.0919615
lhand -15.9551 26.3867
lfingers 7.12502
lthumb 10.2434 56.1173
rfemur -21.6666 6.74784 24.5046
rtibia 32.3401
rfoot -7.14115 -8.69595
rtoes 6.81602
lfemur -9.22171 -2.48845 -20.3618
ltibia 61.4923
lfoot 2.67847 -17.8934
ltoes -31.3264
3
root -10.818 17.4174 -32.5325 0.510184 1.37885 -0.0149173
lowerback 4.23105 -3.43044 -2.02147
upperback 0.715756 -4.60323 4.07554
thorax -1.13308 -2.3012 5.56965
lowerneck -7.73419 -0.101662 -11.8289
upperneck 16.7876 0.759012 4.65156
head 6.31842 -0.00782136 3.50404
rclavicle -1.31198e-014 -1.11319e-014
rhumerus 0 0 0
rradius 0
rwrist 0
rhand 0 0
rfingers 0
rthumb 0 0
lclavicle -1.31198e-014 -1.11319e-014
lhumerus -30.235 17.6873 82.1112
lradius 38.5539
lwrist -1.10938
lhand -15.7893 24.7944
lfingers 7.12502
lthumb 10.4034 54.5171
rfemur -20.4628 6.64024 24.5795
rtibia 31.9791
rfoot -7.89627 -8.97656
rtoes 6.6702
lfemur -11.0376 -2.27361 -20.343
ltibia 62.6701
lfoot 0.626983 -16.1014
ltoes -34.5236
4
root -10.8582 17.428 -32.3323 1.76294 -3.38689 -0.219932
lowerback 2.90987 -1.75974 -2.30799
upperback 0.674319 -2.38138 3.97937
thorax -0.672875 -1.19547 5.48895
lowerneck -7.39987 -0.0853862 -11.6704
upperneck 16.4772 0.683563 4.85451
head 6.16443 -0.0124622 3.53047
rclavicle 1.6201e-014 -2.54444e-014
rhumerus -40.6963 -20.8672 -70.2765
rradius 19.6929
rwrist 20.2985
rhand -14.5034 24.2866
rfingers 7.12502
rthumb 11.6436 -5.36985
lclavicle 1.6201e-014 -2.54444e-014
lhumerus -30.306 17.4087 82.0534
lradius 38.221
lwrist -1.5771
lhand -15.6737 24.9762
lfingers 7.12502
lthumb 10.5149 54.6932
rfemur -21.1211 9.48684 24.9004
rtibia 31.622
rfoot -7.89718 -7.05402
rtoes 5.74485
lfemur -14.0006 2.61815 -20.1189
ltibia 63.8485
lfoot 0.817283 -15.1052
ltoes -28.7145
5
root -10.8655 17.4427 -32.0996 1.66541 -2.90447 -0.437854
lowerback 2.79462 -1.78834 -1.89387
upperback 0.868299 -2.41202 3.8216
thorax -0.429682 -1.21825 5.0795
lowerneck -7.2462 -0.283502 -11.6785
upperneck 16.2767 0.349919 5.14005
head 6.09977 -0.148729 3.59658
rclavicle 2.23633e-014 3.18055e-015
rhumerus -39.2796 -15.8522 -75.1724
rradius 23.3893
rwrist 14.1131
rhand -13.9906 8.19919
rfingers 7.12502
rthumb 12.1382 -21.4287
lclavicle 2.23633e-014 3.18055e-015
lhumerus -30.3369 17.1067 82.0015
lradius 37.8903
lwrist -2.44372
lhand -14.9382 24.5901
lfingers 7.12502
lthumb 11.2243 54.2698
rfemur -19.8814 9.10313 25.2924
rtibia 31.3489
rfoot -8.67105 -7.24548
rtoes 5.72256
lfemur -15.8851 2.68251 -19.8066
ltibia 64.7891
lfoot 2.00672 -14.6144
ltoes -18.4241
6
root -10.8736 17.4474 -31.8675 1.6119 -3.38957 -0.701772
lowerback 2.98195 -1.58908 -1.9355
upperback 0.767354 -2.14341 4.05705
thorax -0.655054 -1.07821 5.35209
lowerneck -6.90817 -0.370445 -12.0955
upperneck 16.4066 0.246067 5.12138
head 6.09398 -0.232765 3.65208
rclavicle -1.76918e-014 -3.18055e-015
rhumerus -38.9847 -14.7245 -75.4533
rradius 24.0443
rwrist 13.7071
rhand -13.4326 7.3947
rfingers 7.12502
rthumb 12.6761 -22.2006
lclavicle -1.76918e-014 -3.18055e-015
lhumerus -31.1204 17.3815 82.1175
lradius 37.7936
lwrist -3.49491
lhand -13.8795 23.7293
lfingers 7.12502
lthumb 12.2453 53.3508
rfemur -18.7639 9.32196 25.7305
rtibia 31.0552
rfoot -8.97655 -7.22576
rtoes 5.016
lfemur -17.3579 3.4638 -19.4844
ltibia 65.4587
lfoot 1.60786 -13.4777
ltoes -11.5324
